<svg width="21" height="18" viewBox="0 0 21 18" fill="none" xmlns="http://www.w3.org/2000/svg">
<path d="M10.1376 17.5068C8.08095 17.5068 6.0243 17.5071 3.96765 17.5058C3.86353 17.5058 3.75839 17.4983 3.65552 17.4826C3.42721 17.4476 3.29601 17.305 3.25424 17.0835C3.23623 16.988 3.23478 16.8884 3.23474 16.7907C3.23376 14.2952 3.23397 11.7998 3.23394 9.30428C3.23394 9.24533 3.23527 9.18631 3.23279 9.12746C3.23121 9.08997 3.24385 9.0422 3.20148 9.02172C3.15791 9.00067 3.13063 9.04188 3.1021 9.06615C3.00234 9.15101 2.90421 9.23778 2.80452 9.32273C2.54923 9.54029 2.29255 9.54293 2.11057 9.3306C1.93422 9.12487 1.96897 8.85262 2.21372 8.64003C2.68832 8.22778 3.16872 7.82219 3.64674 7.41386C5.6733 5.68272 7.70043 3.95225 9.72586 2.2198C10.0648 1.92986 10.2467 1.92576 10.5835 2.21349C13.0679 4.3362 15.5528 6.45831 18.0374 8.58083C18.0822 8.61909 18.1273 8.65758 18.1678 8.70014C18.3571 8.89891 18.3697 9.14276 18.2027 9.33628C18.0384 9.5267 17.7934 9.54326 17.5694 9.37104C17.4502 9.27937 17.3407 9.17511 17.2251 9.07851C17.1922 9.051 17.1633 8.99601 17.1114 9.02331C17.0637 9.04845 17.0832 9.10528 17.0809 9.14898C17.0777 9.20776 17.0799 9.26683 17.0799 9.32578C17.0798 11.8082 17.0798 14.2905 17.0799 16.7729C17.0799 16.8908 17.0791 17.0077 17.0507 17.1241C17.0041 17.3153 16.8885 17.4303 16.6979 17.4772C16.5818 17.5057 16.4648 17.507 16.3468 17.507C14.2771 17.5068 12.2073 17.5068 10.1376 17.5068ZM16.1613 12.3529C16.1613 11.0235 16.1595 9.69407 16.1638 8.36468C16.1642 8.22069 16.119 8.12346 16.0081 8.0293C14.1063 6.41485 12.2068 4.79769 10.3117 3.17545C10.1881 3.06967 10.1203 3.0792 10.0032 3.17928C8.11219 4.79626 6.2178 6.40934 4.32107 8.01965C4.20702 8.11648 4.15118 8.21322 4.15143 8.36791C4.15583 11.0267 4.15628 13.6855 4.15096 16.3443C4.15059 16.5313 4.20189 16.5918 4.39333 16.5901C5.34283 16.5812 6.29245 16.5862 7.24203 16.586C7.52456 16.5859 7.52531 16.5855 7.52536 16.3054C7.52564 14.7992 7.52497 13.293 7.52654 11.7867C7.52666 11.6694 7.53349 11.5508 7.55092 11.4349C7.58791 11.1888 7.74207 11.0445 7.98897 11.0439C9.43624 11.0404 10.8835 11.0405 12.3308 11.044C12.569 11.0446 12.7195 11.18 12.7647 11.4179C12.7853 11.5263 12.7917 11.6387 12.7918 11.7493C12.7935 13.2752 12.7928 14.8011 12.7932 16.3269C12.7933 16.5851 12.7944 16.5858 13.0569 16.5859C14.013 16.5862 14.9692 16.581 15.9252 16.5902C16.1207 16.5921 16.1658 16.524 16.1649 16.3411C16.1583 15.0117 16.1614 13.6823 16.1613 12.3529ZM8.44113 14.261C8.44113 14.9545 8.44663 15.6482 8.43742 16.3417C8.43499 16.5245 8.48001 16.5921 8.67579 16.5903C9.66373 16.581 10.6518 16.5826 11.6398 16.5893C11.8134 16.5905 11.8793 16.5489 11.8783 16.3608C11.8709 14.9606 11.8719 13.5603 11.8774 12.1601C11.878 11.9936 11.8372 11.9308 11.6589 11.9321C10.6579 11.9398 9.65668 11.9399 8.65563 11.9321C8.47652 11.9307 8.4361 11.9947 8.43791 12.1606C8.44555 12.8607 8.44115 13.5608 8.44113 14.261Z" fill="#E21E3B"/>
<path d="M0 8.48415C0.31514 8.09241 0.729413 7.80927 1.10636 7.48679C3.4597 5.47348 5.81947 3.46767 8.17728 1.45959C8.68075 1.0308 9.1837 0.601393 9.68928 0.175111C9.96675 -0.0588357 10.1594 -0.0587381 10.4378 0.177621C11.3112 0.919239 12.1825 1.66348 13.0546 2.40675C13.0845 2.43223 13.1119 2.46118 13.1443 2.48298C13.1755 2.50402 13.2163 2.53756 13.2445 2.53078C13.3023 2.51688 13.2822 2.45505 13.2825 2.41288C13.2844 2.06581 13.2837 1.71871 13.2838 1.37163C13.2838 1.28649 13.2826 1.20133 13.2844 1.11623C13.2945 0.623594 13.4624 0.458156 13.9535 0.457723C14.5298 0.457215 15.1061 0.456134 15.6824 0.458174C16.1019 0.459658 16.2832 0.64011 16.2835 1.05534C16.2845 2.34546 16.2864 3.63559 16.2807 4.92568C16.28 5.08535 16.3309 5.1938 16.4509 5.29566C17.5643 6.24031 18.674 7.18927 19.7844 8.13736C19.8541 8.19684 19.9257 8.25509 19.9885 8.32141C20.1736 8.51709 20.184 8.77692 20.0188 8.95875C19.8618 9.13146 19.6008 9.15558 19.3966 8.99454C19.1345 8.78789 18.8841 8.56643 18.6299 8.34993C15.8583 5.98948 13.0882 3.62736 10.3139 1.27017C10.0199 1.02045 10.1316 0.996765 9.7688 1.30524C6.78091 3.84591 3.79551 6.38951 0.808185 8.93084C0.487186 9.20391 0.222155 9.15684 0 8.79855V8.48415ZM15.3653 2.86695C15.3653 2.43539 15.3618 2.00379 15.3673 1.57231C15.3691 1.42822 15.3146 1.37423 15.1708 1.37826C14.9095 1.38559 14.6477 1.38449 14.3863 1.37857C14.2562 1.37562 14.197 1.41469 14.1984 1.55633C14.204 2.11861 14.2019 2.68098 14.1995 3.2433C14.1991 3.33513 14.2245 3.40477 14.297 3.46505C14.6037 3.71994 14.9068 3.97919 15.2126 4.23513C15.2462 4.2633 15.2958 4.3057 15.3263 4.29755C15.3907 4.28031 15.364 4.20949 15.3643 4.16162C15.3665 3.73007 15.3656 3.29851 15.3653 2.86695Z" fill="#E21E3B"/>
</svg>
