<?xml version="1.0" encoding="UTF-8"?>
<svg id="Layer_2" data-name="Layer 2" xmlns="http://www.w3.org/2000/svg" viewBox="0 0 23.8697628073 23.8406835178">
  <defs>
    <style>
      .cls-1 {
        fill: #58595b;
        stroke-width: 0px;
      }
    </style>
  </defs>
  <g id="Layer_1-2" data-name="Layer 1">
    <g>
      <path class="cls-1" d="m3.9205138886,9.2067939938c-.4299141279-.3962643127-.7551486883-.8172306148-.9574565456-1.3238476634-.0483777191-.1211462179-.1227158128-.1646086557-.2530892131-.170429374-.7268791383-.0324463493-1.2646314284-.4220983728-1.4753734326-1.0569506285-.2109912465-.6356028201-.0086362501-1.2873336213.5500432396-1.7318141903.1058984109-.0842514017.148402323-.1720926979.1473665441-.3036611431-.0043422896-.5516366329-.0056744498-1.1033746835-.0001351016-1.6549955728C1.9475177316,1.4067320847,3.3295905189.0197625055,4.8854427603.0057476835c.8554229921-.0077054588,1.7110275842-.007603263,2.5664535053-.0000551939,1.5590489134.0137565638,2.9394803446,1.3961169912,2.9563457094,2.9561575649.00587637.5436180423.0055402636,1.0873913233-.0006802676,1.6309939882-.00170909.1492927486.0436118183.2489197364.1644087492.3441821007.5421213071.427532459.7415817794,1.0869479411.5342370859,1.7157868946-.2077342547.6300200856-.7622050919,1.0393881541-1.4491282097,1.0598481732-.1328315901.0039563896-.225216913.0295312304-.2796273392.167357552-.2003040334.5073859195-.5256447712.9286304795-.9556112556,1.3249416568.1131199387.0224905703.2001568496.0434543829.2883485312.0567924612,2.0949980184.3168633876,3.6131898678,2.0746266025,3.6191211571,4.1921986686.0013429611.479713892.0017017675.9594380356-.0002826516,1.439147534-.0015128449.3656940083-.1291629779.4996986756-.4849832201.4998026563-3.7817651647.0011013159-7.5635306956.0010661676-11.3452956773.0000541871-.3493790268-.000093729-.492739525-.1329399643-.4855974472-.4730884221.0152514684-.7263647271-.0652692622-1.4564581117.050723004-2.178738304.2848628004-1.7738355444,1.7676893374-3.2238966507,3.5395549248-3.476580559.0938150565-.0133798171.1866272858-.0337885781.3170845295-.0577546482Zm2.2238494205,5.3853602577c1.6867268722,0,3.3734537444.0000981226,5.0601806166-.0000849419.323004835-.0000351484.3250624798-.0005579806.322965293-.3322605753-.002373248-.3752983034.0093611855-.7503022392-.0339884845-1.1253486458-.1560595442-1.3501767299-.8685421253-2.2837785086-2.0956431376-2.8453156349-.2023199395-.092584497-.255510424-.0263385858-.292941253.1695081935-.1873694292.9803688965-.3874633046,1.9583044999-.5825558582,2.9372000934-.0387913643.1946400183-.0963834512.3783679287-.3123167981.4439797046-.2142227923.0650918727-.3635323829-.0465745339-.5060180617-.1911603285-.4432606273-.4497996906-.8983933525-.888086822-1.3348308003-1.3443201309-.1504255516-.1572479988-.2394380944-.1667658875-.3952442774-.0032190059-.4464986719.4686787648-.9135778192.9176890814-1.368643909,1.3783071509-.1333855433.1350137188-.280648839.2173180466-.4709641419.1618875851-.1923498815-.0560206614-.2710386858-.2096220157-.3032119029-.3943663002-.0054739942-.0314329043-.0147601233-.0621818797-.0210099448-.0935005517-.1937678991-.971004782-.3921838054-1.9411271931-.5770650221-2.9138227587-.0382304547-.2011373429-.1089468007-.2278581674-.2869184315-.1511204644-.8628879957.3720617233-1.4808152075.9848547086-1.8555987336,1.8462302255-.3031713541.6967873644-.2713255479,1.4342721606-.2836798377,2.1693375766-.00398568.2371475916.0757179423.2937482013.301301625.2926190595,1.6786929042-.0084048566,3.3574476842-.0045605024,5.0361830594-.0045502508Zm3.4639513063-10.8311047017c-.0025716899-.3273581084.0004393548-.6537284009-.0369885453-.9811007883-.1121152808-.9806658271-.9592513098-1.8365820865-1.9398303643-1.9341326653-.877063411-.0872527439-1.7588432953-.0677884126-2.6347713404-.0268087869-1.2798799677.0598783793-2.075667141.8372244601-2.2389771372,2.1023642586-.0625923102.4848960814-.008349205.9742274491-.0284775112,1.4609259835-.0075612955.1828221074.0654832646.2338099599.2385751285.2309435362.5034580879-.0083356583,1.0071515967-.0010632385,1.5107381959-.003287472,1.1569009082-.0051093298,1.9093007002-.6754702374,2.0484546054-1.8225010409.0601073929-.4954541425.0600693155-.4868449859.5722485955-.4846090363.1957318148.0008547281.2455019224.0777776923.2419555972.2566564076-.0082386341.4154952369-.0095398564.8314536269.0002775258,1.2468954089.0111002981.4697932614.3167432973.7856080557.7819218692.7999229661.4312501325.0132714429.8632625456-.0002478693,1.2948370684.0055761442.1498492646.0020221303.1954367149-.0645565921.1914978994-.2034179603-.0061180151-.2156532582-.0016160933-.4316074744-.0014615868-.6474269552Zm-5.2066468496,1.6514811008c-.3053175106,0-.5131605056.0021616254-.7209277119-.0008541789-.1147202884-.0016651546-.1813488044.0349704424-.1810851915.1632620333.001016374.4951839393-.0300734674.993250412.061367975,1.4826777056.2006826108,1.0741250062,1.1257345458,1.9695248882,2.1623229117,2.1107005576,1.2063202642.1642901234,2.2907847525-.3869917304,2.8189140749-1.4218713724.2912709727-.5707496635.3034799093-1.1825050393.2991756971-1.8003066689-.0037213348-.5340792843-.0015816771-.5525991859-.5298157124-.5295502689-.6819862347.0297574981-1.2208643714-.1931008121-1.5775574651-.7920629094-.0496104754-.0833053244-.0902815458-.0985505686-.1617184336-.0260980391-.6254288283.6343191719-1.3905680778.8812343522-2.1706761441.8141031411Zm.104757553,7.2135827959c.3730026748-.3733109554.7093001881-.7102096525,1.0460985659-1.0466067529.049839306-.0497810915.0422413976-.0984938186.0024047351-.148337152-.3587873514-.4489187843-.7121823554-.9023358292-1.0800387213-1.3436984439-.104961853-.1259366494-.2732420499-.0886325009-.403259939-.0346196908-.1186415297.0492875496-.0476652322.1720491286-.0325770573.2571704527.0570458225.3218332223.1252281898.6417083868.1903596045.962088077.0883604671.4346412191.1777475599.8690744769.2770128122,1.3540035099Zm3.8208897064-2.4445105907c.0082152018-.0738943454-.0103299627-.134457935-.089978391-.1452851009-.1481357811-.0201385578-.297985778-.0577158385-.4157921674.0923721422-.3301348305.4206001731-.6636490314.8386425692-1.0022824476,1.2524137047-.0871804334.1065244914-.0653137469.1719751705.0252365376.2595993523.2867434218.2774796266.5690925638.559707946.8465348452.8464923743.1113449454.1150933738.159939779.101455802.1888339451-.0537609134.0641933922-.3448378377.1328389127-.6888577432.201421459-1.0328622714.0810448442-.4065151916.1639357106-.8126620575.2460262191-1.2189692879ZM2.699126685,6.1676028179h-.0013799401c0-.1915974865-.0035756155-.383285773.001277424-.5747606063.0031509059-.1243267803-.0323614074-.1735806461-.1683622099-.144243464-.3022694869.0652039082-.5670504794.3968039868-.5620987682.7215303602.0047518048.3116116337.2675639388.6393827356.5550560944.7047052696.1218548606.0276874049.1815957584.0063362279.1770711366-.1324925547-.0062381054-.1913931866-.0015637368-.3831422505-.0015637368-.5747390047Zm6.943886705-.005700628h-.0018006223c0,.1994385045.0018277158.3989004413-.0007417773.5983059942-.001362732.1057351174.0388536062.1374023442.1465006491.1212897405.2952844784-.0441968924.5911745342-.4066762884.5844677837-.7286566945-.0066510989-.3192424937-.2933176336-.6626451058-.5804103425-.7078074803-.1055469271-.0166032165-.149881484.0111013965-.1486630068.1185598829.0022604803.1994132416.000647316.3988700526.000647316.5983085571Zm-3.4755964043,3.8575509324c-.1673678036,0-.3347363394.0003016903-.5021030446-.0001054451-.1119816437-.0002731322-.1562407781.0334422201-.0727220004.1372368539.1648638476.2048843068.3293546097.4100725007.4930889494.6158589493.0608755315.0765099708.1153137835.0685481302.1730420703-.0042632057.1633799268-.2060691002.3289200146-.410425449.4924134414-.6164044815.0921619842-.1161097478.0147396201-.1317507774-.0816167376-.1321710935-.1673648745-.0007307934-.3347348749-.0002028354-.5021026785-.0001515774Z"/>
      <path class="cls-1" d="m15.4356760166,17.6509391853c-.4271333784-.3938903325-.7525839549-.8146911442-.9549522234-1.3212906187-.0482587272-.1208079148-.1220058888-.1651519911-.2526890341-.1710437384-.7278805011-.0328198008-1.2647163703-.4215272116-1.4757867922-1.0563289415-.2112783831-.6354153621-.0088983985-1.2880959018.5492857188-1.732040458.105745369-.0841012888.1490057035-.1715958609.1479146392-.3033920383-.0045048508-.5436385455-.0049544572-1.0873678911-.0005389418-1.6310122946.0129053139-1.589264805,1.3911465616-2.9726450389,2.9772890188-2.9844395175.8474494354-.0063025441,1.6950394643-.0071124214,2.5424713255.0003756483,1.5593169198.0137781654,2.9400214832,1.3957180479,2.9569791126,2.9555402257.0059107861.54361731.0054963281,1.0873891265-.0006370644,1.6309939882-.0016812642.1490423164.0428531991.2490423896.1638485719.34445267.5425445522.4278129138.7420716599,1.0865506912.5350022954,1.7155587963-.2074032741.6300259436-.7624782242,1.0401357895-1.4487064291,1.0604896312-.1325035386.0039292961-.2284908383.0271491953-.279842623.1668508295-.0942884613.2565187431-.2347487146.4894441355-.3969174868.7091698462-.1568584376.2125305442-.328915621.4114923488-.55682944.6094187407.1032249371.0239653378.1816307237.0470343919.2616723745.0600378284,1.9450513634.3159898039,3.3490798066,1.7171741573,3.615583619,3.6694338679.0949313837.6954107195.0299244529,1.4054548817.0201737062,2.1086172838-.0028982769.2089175836-.1470242135.3293388661-.3571251259.353258804-.0711344652.0080987728-.1437480915.0041123606-.2156865759.0041152896-3.7178009693.0001464516-7.435603403.0002138193-11.1534043723.0000278258-.4865341424-.0000234322-.5925870597-.0997921119-.5826334776-.5930234854.0135306622-.6705080915-.0614174024-1.3445354147.0452586664-2.0111830424.2937643109-1.8358131241,1.7326335869-3.2520292685,3.5686693174-3.5271986213.0859700111-.0128848107.1707976998-.0333924265.291601221-.0573885192Zm2.2387043711,5.3872890251c1.7027179211,0,3.4054431647-.0023095416,5.1081435116.0032439027.1896269804.0006180257.2767437074-.0434316829.2664994188-.2524122406-.0195351773-.3985679962.0075495793-.7979605149-.0369790259-1.1971714335-.1496046905-1.3412314669-.8508954413-2.2776238806-2.0656820718-2.8397797649-.2604084973-.1205032955-.2671174445-.1098196522-.3222052093.1658256683-.1956109923.9787989355-.391819507,1.9574807097-.5870101833,2.9363645871-.0391684772.1964355147-.1041490467.3755194453-.3217468158.4351516028-.2041169005.055937184-.3489648434-.0479467853-.4858223877-.1867155228-.4490527876-.455319451-.9096064183-.8994748975-1.3518711748-1.3612045344-.1455553041-.1519654901-.2293827284-.1571952763-.3780223029-.0020883996-.4589660955.4789274469-.9329859498.9435348576-1.4052454559,1.4095628487-.1888610386.1863713616-.4083978268.204070036-.5798472361.0663337822-.1380408731-.1109004649-.1573314763-.2726474565-.1885593483-.4282844879-.1947820763-.9707982852-.3909656943-1.9413417447-.5783505009-2.9135752555-.0356565681-.1850005747-.1027108921-.2164027242-.2736374692-.1433892851-.8643060132.3691971303-1.4842414424.9804626255-1.8619518035,1.8401583427-.3056371412.6956567582-.2747812561,1.4332997221-.288470086,2.1685350219-.0046644831.2504702926.0778741673.3058817153.3145794751.3045402188,1.6786822865-.0095120306,3.3574421923-.0050628314,5.0361786659-.0050950507Zm.0948112934-13.7868067564c-.4382285507,0-.7900228388-.0047940927-1.1416501721.000857474-1.2943786749.0208012513-2.187359909.8157887989-2.3502711907,2.0973112212-.0647184212.509093545-.0132465461,1.0219582184-.0285141241,1.5328208986-.0048870895.1635190559.0941141839.1753992087.2184515819.1748617313.511580293-.0022158125,1.0231854827.0012638772,1.5347643111-.0012770579,1.1541263828-.0057350442,1.90821586-.6816120509,2.043289624-1.8283462899.0579435707-.491918435.0578513062-.4853771749.5774468946-.4778788536.1762310537.0025423996.2393736557.0620530023.2358588176.2378285915-.0083067341.4154934062-.0077882954.8313763736-.000371987,1.2469159121.0085059082.4765593248.302443032.7986503018.7647174689.8165027504.4390018151.0169532358.8791649913.0021162254,1.3187657933.0063999344.1328755256.0012931675.1889064386-.0515524234.1846490909-.1848028651-.0170938293-.5346683858.0268709373-1.0698823037-.0348393682-1.6046114669-.1201972117-1.0415300086-.9403099937-1.8630501904-1.9719384104-1.982852715-.4793668017-.0556684453-.9582122358-.0147615878-1.3503583298-.0337292652Zm-1.8508478441,4.6072285555c-.3054921541,0-.5133333185.0022128835-.721098328-.0008699224-.1153935996-.00170909-.180501582.0365543163-.1802160014.164181017.001107174.4951762506-.0301543819.9932712814.0616048604,1.4826436556.2015085977,1.0746661449,1.1267047875,1.9695219592,2.1630020809,2.1099133803,1.2071052447.163530772,2.2903183042-.3877774432,2.8185106008-1.4226775884.2993162906-.5864551317.3053120186-1.215247953.2977404715-1.8483742767-.0066606182-.5569802852.0706775363-.5019013075-.481789111-.4793301888-.6961107581.0284408983-1.2580821134-.1738746476-1.6250443925-.7943197284-.050086443-.0846856306-.0914121521-.096110319-.1619388432-.0246126538-.6256016412.6342042074-1.3909444584.8805606749-2.1707713376.8134463057Zm.1462377685,7.1766667442c.3303039821-.3314682722.6604761578-.6638518669.9922182945-.9946625715.0547641067-.0546117971.0629507505-.1051668852.0134881912-.166852294-.3595034997-.4483410328-.7134066906-.9013099359-1.0803733632-1.3434428859-.0987903831-.1190270635-.252907247-.0682025044-.384344618-.0426291282-.0840236695.0163483907-.0806494249.0889459073-.0674966078.1542428123.1573841988.7813089693.3156207459,1.5624465903.4748912412,2.3433718564.0024589222.0120558947.0208078416.0208708158.0516168621.0499722108Zm3.2487502174.0095911145c.0727395746-.0807797668.0765868578-.1452170009.0890777138-.2077225386.137478499-.6879812305.2783605329-1.3752975707.4116739488-2.0640784269.0177177131-.0915381005.0980976671-.2239069036-.0342403812-.275870856-.1368692604-.0537389456-.3028838513-.086560211-.4195662249.0572435321-.3469525986.42759763-.687289979.8605627106-1.0339613905,1.288391734-.0701283428.0865470303-.0626842086.1459521879.0151914232.2230472327.3226343124.3193948033.6401647871.6439476316.9718249109.9789893225Zm-5.0967451845-6.424837015h-.0013634643c0-.1915982188-.0054582507-.3834014698.0017823158-.5747258241.0054816829-.1448757687-.0476524176-.1815384592-.1860799229-.1464281556-.295848317.0750447226-.5456127129.3938961906-.5449375711.7109594846.0006590321.3096147663.2612022649.6390502905.5487248092.7100456267.1410167694.034821794.1897470707-.0061582893.1837440201-.1490906454-.00769896-.1832900202-.0018701868-.367146808-.0018701868-.5507604862Zm6.9435070293-.0153334813h-.0016461158c0,.1914605543.0062490892.3831905795-.0019565932.57429965-.006688444.1557468701.0636302859.1712019061.1915411027.1384450795.2884788731-.0738745744.5451221001-.4083421752.5408310686-.7152607677-.0043510767-.3112535595-.2671643091-.6396712452-.5537144148-.7051394985-.1232565853-.0281597113-.1806509626-.0035426639-.1765137052.1333134159.0057833732.1912877414.0014586578.3828801021.0014586578.5743421209Zm-2.7853935033,3.8609647189c-.4520330774,0-.8250276973.0000995871-1.1980237818-.0000541871-.1286914038-.0000527226-.1362629508.0511555396-.062900957.1420141047.1601946048.1983965015.3202354354.3969453126.4776137762.5975708073.0644064793.0821051537.1204329987.0915922875.1889884515.0045151024.181055169-.2299656058.3651125955-.4575704119.594322511-.7440458273Z"/>
      <path class="cls-1" d="m9.2925195921,23.8386359312c-.5894039345-.0165783197-1.2919124302.0460575598-1.9864993595-.1375312216-1.7798905853-.470450829-3.1380251283-1.9634398248-3.4059275533-3.789348428-.0327641492-.2233049876-.1099426715-.3199850032-.3496106949-.3001554582-.2700109618.0223367962-.5433438117.0032058253-.8152147087.0048534056-.1777647679.0010778837-.3136440156-.0712838458-.3846003591-.2339036889-.0739655575-.1695162484-.0442093408-.3303845305.0886079703-.4633698948.88718706-.8882947832,1.7732455275-1.7777392114,2.6648098425-2.6616258019.1891078095-.1874785356.4073572883-.1876835678.5973049976.0005975225.891638273.8838089711,1.7776249792,1.7733222316,2.6645314014,2.6618967373.1325255063.132774474.1621145851.2941201883.0873224915.4636056818-.0716463135.1623576948-.2077078934.2339344438-.3853690469.2328785278-.2878630442-.0017134836-.5758483755.0048343669-.8635832746-.0013561417-.1550841766-.0033361672-.2160666178.0457500115-.1940637313.2110235574.2167439564,1.6280686177,1.7099577553,3.0411331239,3.3580052987,3.1728355723.1433087367.0114525142.2863626477.026336389.429380678.0411206768.2363779885.0244354474.3840824697.1860506326.377795303.4117003101-.0062080828.2228143747-.1615309755.3810567799-.4038548985.3847663986-.4556965638.0069784182-.9115754599.0020122448-1.4790343562.0020122448Zm-5.5885402341-5.0340009308c.0944429677.0057555474.1331903965.0095720758.1719942092.0102691853q.7406631618.0133241654.811056582.759278257c.1538869349,1.6309332108,1.2976716389,2.9567433255,2.8894854338,3.3428556141.1422433014.0345025296.2857658575.0900911588.438232212.0664509435,0-.0219179446.0032768543-.0332562266-.0004759677-.036525026-.1081552299-.094219629-.2204089074-.1839885943-.3252316314-.2817347775-.9828336767-.9164749978-1.5214818844-2.0354983995-1.5337530629-3.3903981931-.0028470189-.3142865719.1392593503-.452139987.4516625548-.4587054117.1482983423-.0031179543.2967160427-.0005374773.5025156719-.0005374773-.5663085191-.5677708382-1.0896503391-1.0911697743-1.6109744223-1.6165721681-.0758428838-.0764360127-.1338472319-.0585557384-.2014910235.0094446629-.517774829.5204845495-1.0370394368,1.0394855444-1.593020556,1.596174391Z"/>
    </g>
  </g>
</svg>