<?xml version="1.0" encoding="UTF-8"?>
<svg id="Layer_2" data-name="Layer 2" xmlns="http://www.w3.org/2000/svg" viewBox="0 0 18.6222038436 32.0933560572">
  <defs>
    <style>
      .cls-1 {
        fill: #58595b;
        stroke-width: 0px;
      }
    </style>
  </defs>
  <g id="Layer_1-2" data-name="Layer 1">
    <path class="cls-1" d="m12.4453019182,17.5586117477c-.052591103.2936790637.0003770608.5136377987.1022130987.7375527111.4366976466.9601883806.843309392,1.9343674949,1.2936049185,2.8879977807.8214694756,1.7397073705,1.3137470741,3.5958969273,1.9473810291,5.4019906947.1959235743.5584567105.3816408422,1.1205971672.5636230362,1.6837700994.0466291987.144297826.1042800238.2291286176.2703131367.2717937421.9980899041.2564665153,1.6117258158.9049163947,1.8738660109,1.8950189264.0055039037.0207758547.0054683692.0431705045.012125171.0634626948.3027522135.9226579955-.0117481101,1.0463418463-.7881637512,1.1355907643-1.1663597182.1340737523-2.3310453653.2830562137-3.495614538.4321748908-.475509249.0608864414-.6386482719-.0302458066-.7940230002-.4951776108-.8084658121-2.4192006094-1.6160965629-4.8386815468-2.4203989127-7.2592680029-.0585312918-.1761584796-.1368612387-.3353452732-.2454251474-.4859840385-.5527218323-.7669239735-1.1001687612-1.5376481676-1.6898820384-2.3636601405-.1654359354.8234870473-.3171762711,1.5788701954-.4689491801,2.3342493953-.0763469228.3799845383-.1836799549.7569091588-.2214827714,1.1406840468-.0499704315.5072731697-.3051103243.8649676875-.6588763026,1.2086734458-1.0437981662,1.0141140026-2.0606354956,2.0559311188-3.0961156209,3.0787115982-.150774981.1489271855-.1804709895.2352938583-.0239591562.4100704396.4993371248.5576038818.6211731802,1.2395411067.5664519796,1.9615060044-.0226680683.2990526742-.2054576858.4763897156-.504930852.4890242148-1.7090371237.0721114043-3.2037645155-.4484970844-4.4476423153-1.6389235495-.2873963616-.2750471257-.2890472366-.4990923314-.0250340757-.8517488427,1.3433685588-1.7944206746,2.6810767632-3.5931647169,4.0383467259-5.3770197915.307255228-.4038262332.5110181142-.8168460386.5941955631-1.3262868146.2393862516-1.4661882296.5256504436-2.9247187682.7920794589-4.3865165093.013291888-.0729267244.0132000905-.1482915122.0197581852-.2275729949-.136696398-.0212990019-.1950855516.0889567452-.2815213194.138031904-.4882839122.2772324992-.9846943737.3043058621-1.4781604047.0326858443-.4921719819-.2709093272-.7499463652-.7017516731-.7681548501-1.2628320163-.0159678355-.4920229343.0987287407-.9617578223.2914611169-1.4124817372.414684993-.969776781.8256724208-1.9411990081,1.2496506802-2.9069090597.2027284366-.4617613345.5736872045-.8075162506.9047801791-1.1704787624.3870539354-.4243128762.5850987237-.8712237388.6108030201-1.4625854232.0363952543-.8373316946.4859475169-1.4985591985,1.1492893253-2.0119058115.4184960712-.3238646591.4620475849-.856151176.6872229861-1.2875892189.0371108803-.0711050862-.0533699014-.1335969974-.0948860762-.1935486832-.4630504482-.6686719878-.6794201957-1.410006165-.6617388063-2.2218808243.0131033576-.6016741009-.03653147-1.2046982671.1191472759-1.7999778801C7.8137995077,1.0094909831,9.473401192-.1631580074,11.2083429873.0185360546c1.8267788116.1913119204,3.2352569918,1.6821852964,3.2767238131,3.4956196585.0159569777.6977856248.0846728603,1.4056729266-.122941574,2.0889915563-.4409716609,1.4513713181-1.4114966411,2.3258143865-2.9005533143,2.6269665591-.1344113303.0271849018-.3624442999-.0381996187-.3713239839.1638181273-.0119139379.2710820645-.2300959464.5507200539.0310670491.8234663188.7236883224.7557829116,1.154581996,1.6575554876,1.2683517132,2.6985197752.0396525861.3628292573.0333195434.7318474451.0288718049,1.0978076892-.002009675.1651990386.0429691422.285056018.1650105081.3953808601.1757103497.1588393449.3459167956.3255989416.5034038543.5023990168.3704079827.4158280203.7939242932.714212448,1.3393220643.9006384323.9654040598.3299904171,1.3681543863,1.4322112974.922665892,2.3393071433-.4469335652.9100373152-1.5362090191,1.2314017254-2.4196191272.7119046777-.1553391938-.0913454553-.3052870099-.1918568448-.4840197687-.3047441213Zm-3.3288006525,1.0772035848c-.7327377824,0-1.4655950004.0073674924-2.1981373429-.0045819801-.2138083002-.0034902804-.2900663866.0589024302-.3279846903.2773825339-.2704977189,1.5586095914-.5610378992,3.1137249541-.8384135236,4.6711619061-.0520748653.2923938983-.1550914392.547589067-.3383706435.7876623195-.8104626553,1.0616098489-1.6103962322,2.1313334154-2.4059432689,3.2041978393-.1823622161.2459325015-.5457985216.4979473299-.4804988891.7454078162.0518922573.1966559804.4945429246.2803240032.7500549429.4364903619.1795312986.1097325999.2897406534.0838733334.4374942124-.0656460942,1.1285124836-1.142006721,2.2656184007-2.2755463533,3.4044102338-3.4073329489.1205903727-.1198520441.1854211468-.2483508236.2183468492-.4151104203.3042890819-1.5411660859.6201387305-3.0800540137.9233844792-4.621421462.0541881827-.2754360314.1477624426-.5029063709.4474813892-.5619608099.2873075253-.0566124272.4552752959.1202370015.6075081796.3346898586.7730694729,1.0890188157,1.5495245968,2.1756548438,2.3299832777,3.2593869112.1467516826.2037786793.2515252416.4208867554.33024212.6588693931.530277829,1.6031955547,1.0766646444,3.2011497664,1.5931195416,4.808741732.0872175275.2714818279.2005470114.2976964397.4307831217.2286804877.2779273967-.0833107034.5618344649-.1466055962.842971814-.219271734.5319558484-.1374909895.5261637201-.1358879874.3643868542-.6472653952-.9901933421-3.1300293806-2.0678726947-6.2261607946-3.5029958494-9.1870359461-.1043984723-.2153866255-.2121865438-.2961151531-.4544392474-.2897288086-.7106925554.0187405158-1.4221964826.0066745691-2.1333835603.0066844397Zm-1.6102994993-9.1477416665c.010101677.0168966686.0202033539.0337933371.0303050309.0506909928.0377830751-.0139028845.0759037282-.0269568886.1132998718-.0418330243.9486692707-.3774191427,1.9189928886-.0778522049,2.4235772789.7484065356.5029616468.8236045086.3218934798,1.8347878996-.4570174749,2.4965346025-.3280843844.278733833-.652995338.5670994976-1.0105408083.8040121512-.7055874281.4675218765-1.2027707656,1.0863803769-1.5001779937,1.8744365375-.0824509652.2184722071-.2468188906.4014385102-.2554922769.653402998-.0140716735.408826731-.0287642142.8187194979-.0723729779,1.225031174-.0263409567.245433044.0413740367.310009154.2885314924.3077803494,1.3461279137-.0121310934,2.6924631121-.0109505574,4.0386216249-.0006415957.2232634461.0017076315.2897840845-.0531576813.2883212464-.2834036624-.010271453-1.6154194327-.0009771996-3.2309523785-.006729845-4.8464182035-.005900706-1.6570204955-1.016733687-2.9847513938-2.5901730219-3.5163301814-.4873037514-.1646344344-.8046863202-.0284217008-1.1087404793.307634263-.0638180401.0705360402-.1211115457.1469767346-.1814116674.2206970635Zm5.8773281935-6.3775391222c-.0065817844-.0660878081-.0052768776-.1093175368-.0157062618-.1495011668-.3005411761-1.1578025594-1.3861230132-1.9577188626-2.6009498549-1.9177678111-1.1703020768.0384869796-2.1970397208.9071445825-2.4244992026,2.0560250139-.114215873.5768922216-.0672066522,1.1614628627-.0472510529,1.7411558961.0198598535.5769292367.2565573257,1.0824439407.6315561721,1.5236347312.1112220889.1308549162.1731074454.128274221.2922487989-.0080391937.4306923113-.4927721206.7437870468-1.0114049883.6236684938-1.7103681879-.0449847397-.2617705372-.0076833548-.5377524184-.0071996904-.8072536899.0010265531-.5734123054.1542711838-.7273427032.72713912-.7277195173.9364532893-.0006159318,1.8729065786-.0001660746,2.8209934779-.0001660746Zm-1.2081601692,1.0350144749h-.6465290408c-.6585100995,0-.6712669954.0003242526-.6548421465.6462985599.0157338998.6187741059.042755935,1.2226957658-.4620298176,1.7081176677-.160920089.1547459646-.4501691815.4030020295-.353017779.5603272086.1253638444.2030097516.4801247895.1806432332.7479978885.186983679,1.584624815.037507189,2.864229129-1.3926796274,2.6552288481-2.9508445436-.0226335209-.1687495302-.113823019-.1503979201-.2200337522-.1505514095-.3555920582-.0005137701-.7111821423-.0001949464-1.0667742005-.0003311621Zm-8.0361446058,12.9812648991c-.0175876178.1793644837.0775195622.3795403567.329272817.4519202441.276962042.0796230089.4444461481-.0840510061.5610902139-.3183360786.5037897988-1.0118753272,1.010719468-2.0221910835,1.5130474157-3.0347899332.1630255099-.3286282601.3103250165-.6650257502.646378019-.8649775582.0848850804-.0505054236.1589607546-.110858847.0432208451-.220986275-.2498185971-.2376993486-.489601651-.4859336979-.7340811851-.7292652693-.0542474069-.0539917557-.1120601115-.1160982159-.1823928153-.0217885887-.2563885367.3437936075-.601401176.6210330162-.7757177824,1.0263181392-.3912331909.909612875-.7804942154,1.8200736434-1.1717560313,2.7296736864-.1245090416.2894603255-.2060982944.5887992501-.2290614968.9822316334Zm10.3600139704,13.8621303401c.1472175798-.0193761891.3070617622-.0415398645.4672020657-.0612990368.7473227325-.0921963098,1.4952337588-.180000157,2.2414075415-.2806911933.0839977043-.0113355148.2667300717.0502458241.2183695518-.1691384359-.1118429561-.5073955664-.8876446395-1.0627133935-1.388817715-.9544969335-.6195149021.1337677605-1.2315162255.3025646701-1.845823345.4599056424-.0763025046.019543991-.1879322535.0291422621-.1459028022.1594434319.0824736678.255690678.1702715926.5096539831.2547727027.764697143.0323028611.0974988512.1112921709.0831567204.1987920004.0815793822Zm-5.1835480997-19.6767045553c.0030105643-.4139042204-.2107562789-.7431059684-.5308217047-.8817824292-.3363599814-.1457350003-.7268884041-.083966118-.9828396687.1870626446-.2285955996.2420602249-.4268990003.5124700946-.6490539665.7609985908-.0880239639.0984740766-.0661001465.1567635362.0160339692.2371367185.284578276.2784722594.5690361295.5574054807.8433982284.8458106281.108062477.1135930317.1883507713.1020433226.2974802713.0097305386.229963679-.1945239087.4708107946-.3762119558.7001121494-.5714801154.1979697709-.1685876507.2984851088-.389660788.3056907216-.5874765759ZM3.9110234262,31.0441234591c.2363105407.0089547013.2373183394.0086921406.1759857423-.2263075708-.1013198002-.3882127559-.3439752284-.6649438234-.6925541525-.848759994-.3137096804-.1654270518-.6342686412-.3178287245-.9510836446-.4774103463-.665739402-.3353373766-.6607803611-.3323524762-1.1008606975.2894919117-.095346051.1347232445-.099238069.2014037883.0387770549.3053264927.7515266647.5658873754,1.5977745649.8728326633,2.5297356974.9576595066ZM12.4349969048,14.7988867074c0,.4919015247-.1165433846,1.0258413842.0404619838,1.4611097532.106881941.2963066448.5966089499.4545261096.9152154857.6743920599.0088500719.0061079907.0185371793.0109920143.0277702345.0165590906.3778544407.2278730642.8050702905.123938515.9948088826-.242033574.1906111622-.3676619533.03942556-.8217261139-.3800595556-.9468402295-.6165378983-.1838882267-1.1575846637-.4559741416-1.5981970309-.9631871Zm-3.5655109567-7.1071703478c-.0541516611.0094018442-.07753042.0564564701-.0948209296.1066104967-.0351791838.1020423356.0534715697.0992222758.1070072989.1152730252.3495965935.1048229125.6941078011.2220878454,1.019347449.3903685173.0448189119.0231892414.1022920643.0653243093.1304117217-.0097275773.0281927005-.0752532489-.0207028115-.116717109-.093139949-.1365483374-.3432832922-.0939809328-.6692829842-.2282274224-.9704282474-.4200289913-.0265255389-.0168937074-.0573477945-.0270427637-.0983773437-.0459471332Z"/>
  </g>
</svg>