<?xml version="1.0" encoding="UTF-8"?>
<svg id="Layer_2" data-name="Layer 2" xmlns="http://www.w3.org/2000/svg" viewBox="0 0 27.2957490034 19.3372481719">
  <defs>
    <style>
      .cls-1 {
        fill: #58595b;
        stroke-width: 0px;
      }
    </style>
  </defs>
  <g id="Layer_1-2" data-name="Layer 1">
    <path class="cls-1" d="m0,4.8620138606c.1221618706-.5459018417.3331631766-1.0399806477.7634704005-1.4252774364.6213149011-.5563241927,1.3671633244-.6199464846,2.1462291791-.5776040064.7559563348.0410851271,1.3237544664.4299449527,1.7832447306.9909569668.7539422144.9205217187,1.4943642446,1.8521985654,2.2327741876,2.7852759028.1157324202.1462431105.234427667.2063747484.4233092944.2034029755.7281949818-.0114625528,1.4566835624-.0063371798,2.1850534022-.0042470165,1.1091317061.003179976,1.8169553226.7017597031,1.8327291421,1.8055187951q.0067446396.4719360883.4835442206.4719393415c1.2702157889-.0000065063,2.5404730558-.0051286262,3.810609142.0049204232.2160415501.0017095421.2781917816-.065945057.2644503815-.2724483058-.043607149-.6553011486.1208830053-1.2316168988.6661374658-1.6527254221.2526007012-.1950894935.5385008746-.3084967087.8536145359-.3404737665.1266964243-.0128565372.1886709844-.0445326765.1856081227-.1897721833-.0247110973-1.1716609322.0473678162-2.3448451622-.0394398352-3.5153056738-.0737575504-.9945012981-.9695234407-1.9025836989-1.9655537298-1.9613945489-1.3209343727-.077996434-2.6450048035-.0780411651-3.9659546287.0001838042-.9936237548.0588401286-1.8716769349.9692168292-1.9668566253,1.9647583292-.053461008.5591869844-.01731257,1.118208057-.0315248668,1.6771014426-.002708266.1065047967.0022658346.2135813385-.0069146179.3194745389-.0278211301.3209100012-.2482463299.5370711054-.5478659446.5439361124-.2827112513.0064762529-.5567153867-.1957498875-.5602060406-.4966577584-.010267012-.8850865387-.11950854-1.7788427817.1019405959-2.6523276945C9.0093111469,1.1176661466,10.3193099806.0556354966,11.7903237673.0221294478c1.2340031007-.0281074092,2.4697783671-.0308774855,3.7036448346.0000154526,1.7636016692.0441553085,3.2145881135,1.5071524651,3.2589841567,3.2750418155.0274209899,1.0918890793.0128581638,2.1850159907.0037948256,3.2774760017-.0017144218.2065585527.0482559323.2778827302.2617974194.2642909761.3007899434-.0191481725.6044231594-.0174239912.9054684769-.0003855009.1983686912.0112266978.3234369028-.0548159544.4466247807-.2109600949.7370045725-.9341720299,1.498072861-1.8495464166,2.2265476157-2.7902150317.9338589121-1.2058761725,2.6068434651-1.1940191725,3.5453934517-.6676859758.7605900722.4265356281,1.1368584942,1.1162081693,1.1414259482,1.9764396578.0132078798,2.4870527124.0189432227,4.9743583589-.0027001331,7.4612996501-.0129541323,1.4888436111-1.258592204,2.7205499721-2.7477985438,2.7481807916-1.1277122001.0209227781-2.2561986552.0137657989-3.3840995392-.0002179625-.2317234675-.0028725512-.3391692444.0620607692-.4284005092.2769685887-.4522283701,1.0891621076-.921693674,2.1711900081-1.3882002176,3.2543890508-.1521362322.3532522275-.3696384567.4878587404-.6715702636.4305166978-.3043326481-.0577991134-.4949457764-.3127046872-.4472152315-.6165835177.0175866498-.111977446.0581553358-.2226812749.1029482661-.3276936788.5149332674-1.2071530426,1.0413193282-2.4095174155,1.5445314156-3.6215128052.1537693247-.3703557812.3818687582-.5334177928.7875816433-.5282663944,1.2167255023.0154509421,2.4337714421.0056214818,3.6506921348.0054588232.7447536291-.0000992218,1.3230440549-.2876715258,1.6753463561-.9681001778.1429574064-.2761064981.1793148607-.5749266456.1796450577-.877736809.0025797657-2.3716586222.0036874709-4.7433270038.0002098296-7.1149848127-.0012004206-.8188169777-.4569031788-1.2332597509-1.2705606252-1.2825916699-.6665701377-.0404125337-1.1362599105.2193199346-1.5317594609.7235494517-.7617514547.9711687326-1.5460717927,1.9246271949-2.3088235979,2.8950273655-.2053109611.2612037155-.4386040843.3761626939-.7735751097.3692057848-.8253900125-.0171393386-1.6513851151-.0078677973-2.4771199638-.0048163217-.5912380518.0021845052-.9420845584.518472719-.7340441857,1.0664321923.0365022205.0961458826.1090983884.0751921994.1743814248.0758265681.2931010705.0028562853.5862411791.0014639276.879368275.0014704339,1.1636255964.0000292786,2.3273032435-.0057304631,3.490826365.005247367.2120336418.002000701.3402167659-.0681686003.461351892-.2353458749.4063130954-.560750947.8264131352-1.1115390537,1.2435267628-1.6644124438.063755672-.0845076585.1317697466-.1689713992.2114041529-.2377093047.205036068-.1769693234.4732471168-.1847948296.6869268638-.0312564801.2060185261.1480339818.2893338969.4250237162.1854015462.6653388119-.0450954753.1042706806-.113695121.2003124617-.1821874119.292214581-.4403770632.5909078548-.8812518618,1.1814871393-1.327953092,1.7676095775-.0965004784.1266216013-.1415406498.2547787001-.1395610944.4150706354.0070219725.5684007818.0055808172,1.1369609691.0018234031,1.7054251878-.0033865524.5123811537-.2172468505.7254704499-.7312253118.7283950519-.6217641947.0035378249-1.2435674275-.0002944121-1.865347888.0012020472-.7128953122.0017160484-1.0592914789.2514149198-1.283485479.9234845454-.5863615465,1.7577557185-1.1717406349,3.5158400073-1.7591545826,5.2732427566-.0391714484.1171922813-.0799662299.2367658847-.1411258703.3430811841-.131304543.2282441997-.396869136.3228757306-.6435262913.244728024-.2398417591-.0759876001-.3970659529-.2875446521-.3852227789-.5443907432.0052148353-.1131502146.0323527992-.2284621622.0683101133-.3365471874.5933249619-1.7835110841,1.1881984339-3.5665146733,1.7858208365-5.3485911083.3778331979-1.1266776913,1.1672154721-1.6937446724,2.3586443061-1.6999696178.4174714766-.0021796255.8350438015-.0051237465,1.2524062968.0019632895.1447206258.0024577717.2139269881-.0359052634.2011371409-.1928805895-.0249567118-.3063040705.1239296012-.6934917656-.0629179801-.8968703423-.15218015-.165646657-.5387399828-.0439959031-.8210632933-.0441195236-4.9032122926-.0021731191-9.8064286516.0003855009-14.7096295581-.0072643339-.2482426701-.0003871275-.3575395021.0452044566-.3232002345.3137310631.0234704187.1835342253.0167371652.3735211179.0012248194.5587567523-.0170242576.2032891145.0429044637.2770629308.2607527445.2718399625.4967146889-.0119049843.9959363538-.0189106909,1.490906529.0168400468,1.032874906.0746017486,1.7108433464.6418639202,2.0392990808,1.6061367407.620330359,1.8211486617,1.2179259229,3.6500366205,1.8268067418,5.4750939689.0844287691.2530659048.0919606764.4928979044-.1123637602.6919188567-.1667608686.1624292696-.3724776629.2038486601-.5912388651.1235880181-.2208172072-.0810137514-.3128722255-.2684940747-.3829130265-.4795127267-.5949060037-1.7923109153-1.19366539-3.5833449605-1.791791221-5.3745872086-.2206203902-.6607030413-.5704088025-.9169407892-1.2603261449-.9194896497-.6217759875-.0022967397-1.2435727139.001171142-1.865349108-.0010426417-.5457997735-.0019437705-.7530772772-.2105567015-.7550796048-.7586088902-.0020116805-.5507149103-.0056601133-1.1015209094.0025025028-1.6521235852.002654182-.1790367145-.048894774-.3206928519-.1575064065-.4625604455-.4641622263-.6062856006-.9229790837-1.2167986987-1.3749756653-1.8322127009-.2849299148-.3879456842-.171104057-.8190105415.2375627086-.9520815571.243556272-.0793074625.4736710458.0141610593.682535691.2902789435.4392396728.5806684948.8790742695,1.1610116724,1.3081331394,1.7491722232.1106782102.1517214527.2289261459.2124988454.4189606162.2114659632,1.4300612263-.0077815883,2.8602476998-.0110445202,4.2902275968.0022528219.2465937184.0022934865.3177487309-.0761974297.2823867473-.3001832267-.0068414215-.0433338825-.0006790997-.0886749723-.001037762-.1330840283-.0040274274-.4979435748-.2135479935-.7139525932-.713175085-.7165193462-.834945393-.0042893078-1.6701786918-.0130566073-2.5047743688.004547935-.336589072.0071000487-.5665859183-.113478785-.7712795899-.3734332823-.7800769813-.9906690611-1.5916141726-1.9569694212-2.3570726172-2.9586049263-.5015037653-.6562405021-1.1576914034-.7410165474-1.8818457417-.6086067391-.5270592641.0963719781-.8530715612.5605118389-.8698600654,1.1594314439-.0097030949.3461546187-.0021745424.6927955867-.0021794222,1.0392177788-.0000285669,2.0430052575.0009523662,4.0860105149-.0004686601,6.1290157724-.0005259973.7561592514.2892636487,1.3419010685.9814170389,1.6943383764.2844582048.1448409932.5939636003.1729793076.9062093869.1734428846,1.2080352623.0017892448,2.416176456.0095757129,3.6240541428-.0043153331.3910618167-.0044942576.6230308987.1444229605.7744050753.5071224006.5156961364,1.2356378199,1.0532112998,2.4621504912,1.5785327598,3.6937966686.2006394056.4704087239.0143318509.8584064588-.4250855265.9052895524-.2684428373.0286441827-.4748501174-.1162732601-.617169902-.4469061801-.4487669947-1.0425669198-.9083247622-2.0808689306-1.3326571793-3.1333385071-.1216487207-.3017236039-.2631962835-.4058039739-.593222487-.3971261366-1.0030441287.0263702152-2.0082154255-.0188570136-3.0107307104.0161454944-1.5445909893.0539245851-2.7927272687-1.078638095-2.977961645-2.3949074185-.0031832546-.0226193075-.0266642206-.0423855827-.0406738295-.0634824055-.0000000381-2.6827660017-.0000000381-5.3655303768-.0000000381-8.0482963785Z"/>
  </g>
</svg>